<svg width="24" height="23" viewBox="0 0 24 23" fill="none" xmlns="http://www.w3.org/2000/svg">
<path d="M23.1331 4.74838C22.685 4.15488 21.9876 3.79358 21.2655 3.79358H6.10074L5.62757 1.88384C5.35365 0.774246 4.40737 0 3.31185 0H0.771891C0.348594 0 0 0.361284 0 0.799961C0 1.23865 0.348607 1.59992 0.771891 1.59992H3.31185C3.6853 1.59992 4.00909 1.85806 4.10878 2.24509L7.14672 14.7871C7.42064 15.8967 8.36692 16.671 9.46244 16.671H19.398C20.4937 16.671 21.4648 15.8967 21.7137 14.7871L23.5813 6.83868C23.7555 6.11609 23.6063 5.34203 23.1331 4.74838ZM22.0625 6.47743L20.1949 14.4259C20.0954 14.8129 19.7716 15.0711 19.398 15.0711H9.46239C9.08895 15.0711 8.76516 14.8129 8.66547 14.4259L6.49911 5.41936H21.2655C21.5146 5.41936 21.7635 5.54843 21.9129 5.7549C22.0624 5.96137 22.1372 6.21946 22.0625 6.47743Z" fill="current" stroke="none"/>
<path d="M9.98546 17.7029C8.56599 17.7029 7.39581 18.9158 7.39581 20.3867C7.39581 21.8578 8.56617 23.0705 9.98546 23.0705C11.4049 23.0707 12.5753 21.8578 12.5753 20.3867C12.5753 18.9158 11.4049 17.7029 9.98546 17.7029ZM9.98546 21.4448C9.41277 21.4448 8.96446 20.9804 8.96446 20.3867C8.96446 19.7932 9.41259 19.3286 9.98546 19.3286C10.5581 19.3286 11.0065 19.793 11.0065 20.3867C11.0065 20.9544 10.5333 21.4448 9.98546 21.4448Z" fill="current" stroke="none"/>
<path d="M18.5513 17.7029C17.1318 17.7029 15.9617 18.9158 15.9617 20.3867C15.9617 21.8578 17.132 23.0705 18.5513 23.0705C19.9707 23.0705 21.1409 21.8576 21.1409 20.3867C21.116 18.9158 19.9707 17.7029 18.5513 17.7029ZM18.5513 21.4448C17.9786 21.4448 17.5303 20.9804 17.5303 20.3867C17.5303 19.7932 17.9784 19.3286 18.5513 19.3286C19.1239 19.3286 19.5722 19.793 19.5722 20.3867C19.5722 20.9544 19.0991 21.4448 18.5513 21.4448Z" fill="current" stroke="none"/>
</svg>
