<svg width="26" height="23" viewBox="0 0 26 23" fill="none" xmlns="http://www.w3.org/2000/svg">
<path d="M8.64956 19.0693C10.2472 20.6966 11.652 22.0953 12.3406 22.8946C12.5059 23.0658 12.7263 23.1801 12.9466 23.1801C13.167 23.1801 13.4149 23.066 13.5527 22.8946C14.2413 22.0953 15.6186 20.6964 17.2437 19.0693C21.4582 14.7873 24.7362 11.4187 25.3697 9.84865C25.7002 8.99219 25.8654 8.07879 25.8654 7.16519C25.8654 3.22566 22.7804 0.0284451 18.979 0.0284451C16.1144 0.0284451 14.0483 2.19796 12.919 3.62531C11.8174 2.16947 9.75144 0 6.88644 0C3.08508 0 7.62939e-06 3.19721 7.62939e-06 7.13674C7.62939e-06 8.07879 0.165253 8.96375 0.495733 9.82021C1.15688 11.3901 4.43487 14.7873 8.64927 19.0694L8.64956 19.0693ZM6.88664 1.71277C8.75965 1.71277 10.4676 2.94019 12.2581 5.53801C12.4233 5.76641 12.6712 5.90918 12.9192 5.90918C13.1671 5.90918 13.4426 5.76641 13.5803 5.53801C15.4259 2.94039 17.1336 1.71277 19.0069 1.71277C21.8992 1.71277 24.2405 4.13936 24.2405 7.13669C24.2405 7.85037 24.1028 8.53554 23.8549 9.19207C23.304 10.5623 18.9793 14.9586 16.1146 17.8418C14.8751 19.0979 13.7456 20.2397 12.9743 21.0677C12.2031 20.2399 11.0736 19.0979 9.83414 17.8418C6.94179 14.9302 2.58961 10.5338 2.06624 9.16353C1.81838 8.507 1.68061 7.82182 1.68061 7.10814C1.68061 4.13936 4.0221 1.71277 6.88675 1.71277H6.88664Z" fill="current" stroke="none"/>
</svg>
