<svg width="25" height="22" viewBox="0 0 25 22" fill="none" xmlns="http://www.w3.org/2000/svg">
<path d="M24.0431 10.2869C23.8506 10.2869 23.6582 10.212 23.466 10.0999L12.5 2.10243L1.53407 10.0999C1.1108 10.3989 0.495114 10.3241 0.187229 9.91303C-0.120623 9.50193 -0.0435932 8.90393 0.379669 8.60489L11.9228 0.196296C12.269 -0.0654319 12.731 -0.0654319 13.0772 0.196296L24.6203 8.60489C25.0436 8.9039 25.1206 9.50188 24.8128 9.91303C24.6203 10.1372 24.3128 10.2869 24.0433 10.2869H24.0431ZM21.8497 19.2187V11.7817C21.8497 11.2585 21.4265 10.8474 20.8878 10.8474C20.3492 10.8474 19.9259 11.2585 19.9259 11.7817V19.2187C19.9259 19.7418 19.4642 20.1902 18.9256 20.1902H6.07419C5.53552 20.1902 5.07385 19.7419 5.07385 19.2187V11.7817C5.07385 11.2585 4.65059 10.8474 4.11192 10.8474C3.57326 10.8474 3.15 11.2585 3.15 11.7817V19.2187C3.15 20.7883 4.45815 22.0588 6.07419 22.0588H18.8871C20.5415 22.0588 21.8496 20.7883 21.8496 19.2187H21.8497Z" fill="current"/>
</svg>
