<svg width="25" height="25" viewBox="0 0 25 25" fill="none" xmlns="http://www.w3.org/2000/svg">
<path d="M12.2145 13.6712L12.2049 13.6688L12.1951 13.6677C10.9852 13.5302 10.0749 12.4842 10.0749 11.271C10.0749 9.92098 11.1771 8.84579 12.5001 8.84579C13.8229 8.84579 14.9253 9.92099 14.9253 11.271C14.9253 12.5096 14.02 13.5259 12.813 13.6668C12.7476 13.6675 12.6905 13.6757 12.6428 13.6824L12.6399 13.6829C12.5879 13.6903 12.5465 13.696 12.5001 13.696C12.3829 13.696 12.3117 13.6955 12.2145 13.6712ZM12.5003 0.85C6.0674 0.85 0.85 6.06735 0.85 12.5003C0.849793 18.9331 6.06715 24.15 12.4997 24.15C18.9321 24.15 24.15 18.9329 24.15 12.529C24.15 6.12308 18.5711 0.85 12.5003 0.85ZM12.5001 22.6798C10.4587 22.6798 8.55775 22.0947 6.96057 21.0623C6.96169 21.0583 6.96276 21.0544 6.96367 21.0509C6.96676 21.0391 6.97306 21.014 6.97306 20.9862C6.97306 17.9378 9.45171 15.4592 12.5 15.4592C15.5484 15.4594 18.027 17.938 18.027 20.9862V20.99C18.027 21.011 18.027 21.0396 18.0296 21.0687C16.4345 22.0973 14.5373 22.6798 12.5001 22.6798ZM22.68 12.5003C22.6798 15.3089 21.5266 17.8761 19.6854 19.7112C19.2545 17.2629 17.6024 15.2308 15.3834 14.2676C16.1877 13.5117 16.6884 12.4314 16.6884 11.2711C16.6884 8.96431 14.8068 7.08276 12.5001 7.08276C10.1948 7.08276 8.31174 8.93352 8.31174 11.2417C8.31174 12.429 8.81204 13.5113 9.6167 14.2676C7.39773 15.231 5.7456 17.2631 5.31474 19.7113C3.47353 17.8764 2.3203 15.3088 2.3203 12.5001C2.3203 6.87666 6.87666 2.3203 12.5001 2.3203C17.6055 2.3203 22.6804 6.83231 22.68 12.5003Z" fill="current" stroke="current" stroke-width="0.3"/>
</svg>
