<svg width="37" height="23" viewBox="0 0 37 23" fill="none" xmlns="http://www.w3.org/2000/svg">
<line x1="9.50098" y1="21.6543" x2="26.9318" y2="21.6543" fill="none" stroke="current" stroke-width="2" stroke-linecap="round"/>
<line x1="18.002" y1="11.5855" x2="35.4328" y2="11.5855" fill="none" stroke="current" stroke-width="2" stroke-linecap="round"/>
<line x1="14.3588" y1="16.6199" x2="31.7896" y2="16.6199" fill="none" stroke="current" stroke-width="2" stroke-linecap="round"/>
<path d="M4.76268 10.9255L5.02224 11.2723L4.71592 11.5786L0.61059 15.6839C0.5077 15.8123 0.473785 15.9836 0.520607 16.1418L0.52071 16.1421C0.56888 16.3053 0.696589 16.433 0.859859 16.4812L0.86006 16.4813C1.01869 16.5282 1.18939 16.4942 1.31738 16.3914L5.4229 12.2859L5.72923 11.9796L6.07605 12.2392C7.85229 13.5686 10.1825 13.9033 12.2612 13.1279C14.3397 12.3525 15.8814 10.5733 16.3529 8.40533C16.8244 6.23726 16.1611 3.9784 14.5923 2.40966C13.0234 0.840926 10.7644 0.177563 8.59656 0.649046C6.42872 1.12057 4.64937 2.66222 3.87397 4.74089L3.87395 4.74094C3.09852 6.81906 3.43339 9.14925 4.76268 10.9255Z" fill="none" stroke="current"/>
<path d="M15.5 7C15.5 10.0376 13.0376 12.5 10 12.5C6.96243 12.5 4.5 10.0376 4.5 7C4.5 3.96243 6.96243 1.5 10 1.5C13.0376 1.5 15.5 3.96243 15.5 7Z" fill="none" stroke="current"/>
</svg>
