<svg width="27" height="24" viewBox="0 0 27 24" fill="none" xmlns="http://www.w3.org/2000/svg">
<path d="M8.91861 19.7438C10.566 21.4286 12.0144 22.8768 12.7245 23.7044C12.8949 23.8817 13.1221 24 13.3494 24C13.5766 24 13.8322 23.8819 13.9742 23.7044C14.6843 22.8768 16.1044 21.4284 17.7801 19.7438C22.1257 15.3103 25.5056 11.8226 26.1589 10.197C26.4996 9.31025 26.67 8.36454 26.67 7.41862C26.67 3.33975 23.489 0.0294512 19.5694 0.0294512C16.6156 0.0294512 14.4853 2.27571 13.3208 3.75354C12.185 2.2462 10.0548 0 7.10064 0C3.18104 0 0 3.3103 0 7.38917C0 8.36454 0.170385 9.2808 0.511145 10.1675C1.19286 11.793 4.57312 15.3102 8.91861 19.7438Z" fill="white"/>
<path id="inner-heart" d="M9.69147 19.0087C11.0505 20.4128 12.2455 21.6195 12.8313 22.3092C12.9719 22.4569 13.1594 22.5556 13.3468 22.5556C13.5343 22.5556 13.7452 22.4571 13.8623 22.3092C14.4481 21.6195 15.6197 20.4126 17.0022 19.0087C20.5873 15.3141 23.3757 12.4077 23.9147 11.0531C24.1958 10.3141 24.3364 9.52601 24.3364 8.73775C24.3364 5.33868 21.712 2.5801 18.4783 2.5801C16.0415 2.5801 14.284 4.45198 13.3233 5.68351C12.3862 4.4274 10.6288 2.55556 8.19165 2.55556C4.95797 2.55556 2.33362 5.31414 2.33362 8.7132C2.33362 9.52601 2.47419 10.2896 2.75531 11.0285C3.31773 12.3831 6.10644 15.3141 9.69147 19.0087Z" fill="#77A215"/>
<path id="stroke" d="M9.36024 18.6287C10.8429 20.0857 12.1465 21.3379 12.7855 22.0536C12.9389 22.2069 13.1434 22.3092 13.3479 22.3092C13.5524 22.3092 13.7825 22.2071 13.9103 22.0536C14.5493 21.3379 15.8275 20.0855 17.3356 18.6287C21.2466 14.7949 24.2885 11.779 24.8765 10.3733C25.1832 9.60646 25.3365 8.78867 25.3365 7.9707C25.3365 4.44355 22.4736 1.58102 18.9459 1.58102C16.2875 1.58102 14.3703 3.52344 13.3222 4.80138C12.3 3.49793 10.3828 1.55556 7.72407 1.55556C4.19643 1.55556 1.3335 4.41809 1.3335 7.94524C1.3335 8.78867 1.48684 9.58099 1.79353 10.3478C2.40707 11.7534 5.44903 14.7949 9.35997 18.6288L9.36024 18.6287ZM7.72425 3.08903C9.4624 3.08903 11.0474 4.18797 12.7089 6.51386C12.8622 6.71835 13.0923 6.84617 13.3224 6.84617C13.5525 6.84617 13.8082 6.71834 13.936 6.51386C15.6487 4.18815 17.2334 3.08903 18.9718 3.08903C21.6558 3.08903 23.8286 5.26162 23.8286 7.94519C23.8286 8.58416 23.7007 9.19761 23.4707 9.78542C22.9595 11.0122 18.9462 14.9483 16.2877 17.5297C15.1375 18.6543 14.0894 19.6766 13.3736 20.4179C12.6579 19.6768 11.6098 18.6543 10.4595 17.5297C7.77543 14.9229 3.73664 10.9867 3.25095 9.75986C3.02093 9.17205 2.89309 8.5586 2.89309 7.91963C2.89309 5.26161 5.06598 3.08903 7.72436 3.08903H7.72425Z" fill="current"/>
</svg>
