<svg width="15" height="15" viewBox="0 0 15 15" fill="none" xmlns="http://www.w3.org/2000/svg">
<g clip-path="url(#clip0_0_321)">
<path d="M14.7874 13.5394L11.1512 9.90329C12.4139 8.21607 12.7321 6.00259 11.9954 4.02848C11.2589 2.05391 9.56866 0.589477 7.5094 0.141574C5.45013 -0.306299 3.30432 0.323844 1.81399 1.81398C0.323816 3.30415 -0.306287 5.44989 0.14157 7.50934C0.589427 9.56878 2.05392 11.2588 4.02831 11.9953C6.00289 12.7319 8.21639 12.414 9.90368 11.1512L13.5398 14.7873C13.7675 14.9824 14.0785 15.0487 14.3663 14.9636C14.6538 14.8787 14.8787 14.6538 14.9636 14.3663C15.0487 14.0787 14.9823 13.7673 14.7874 13.5394ZM1.7733 6.20561C1.7729 4.72869 2.50987 3.34894 3.73742 2.52785C4.96512 1.70676 6.52162 1.55252 7.88658 2.11671C9.25153 2.68088 10.2448 3.88906 10.5343 5.33732C10.824 6.78557 10.3716 8.28286 9.32853 9.32846C8.4997 10.1595 7.37452 10.6271 6.20071 10.628C5.0271 10.6292 3.90111 10.1638 3.07071 9.33417C2.24031 8.50479 1.7735 7.37941 1.7733 6.20561Z" fill="#77A215"/>
</g>
<defs>
<clipPath id="clip0_0_321">
<rect width="15" height="15" fill="white"/>
</clipPath>
</defs>
</svg>
