<svg width="20" height="20" viewBox="0 0 20 20" fill="none" xmlns="http://www.w3.org/2000/svg">
<path d="M4.27199 5.00024C4.45736 4.28504 4.87497 3.65164 5.45927 3.19947C6.04358 2.7473 6.76149 2.50195 7.50033 2.50195C8.23916 2.50195 8.95707 2.7473 9.54138 3.19947C10.1257 3.65164 10.5433 4.28504 10.7287 5.00024H17.5003C17.7213 5.00024 17.9333 5.08804 18.0896 5.24432C18.2459 5.4006 18.3337 5.61256 18.3337 5.83357C18.3337 6.05459 18.2459 6.26655 18.0896 6.42283C17.9333 6.57911 17.7213 6.66691 17.5003 6.66691H10.7287C10.5433 7.38211 10.1257 8.01551 9.54138 8.46768C8.95707 8.91985 8.23916 9.16519 7.50033 9.16519C6.76149 9.16519 6.04358 8.91985 5.45927 8.46768C4.87497 8.01551 4.45736 7.38211 4.27199 6.66691H2.50033C2.27931 6.66691 2.06735 6.57911 1.91107 6.42283C1.75479 6.26655 1.66699 6.05459 1.66699 5.83357C1.66699 5.61256 1.75479 5.4006 1.91107 5.24432C2.06735 5.08804 2.27931 5.00024 2.50033 5.00024H4.27199ZM5.83366 5.83357C5.83366 6.2756 6.00925 6.69952 6.32181 7.01208C6.63437 7.32464 7.0583 7.50024 7.50033 7.50024C7.94235 7.50024 8.36628 7.32464 8.67884 7.01208C8.9914 6.69952 9.16699 6.2756 9.16699 5.83357C9.16699 5.39155 8.9914 4.96762 8.67884 4.65506C8.36628 4.3425 7.94235 4.16691 7.50033 4.16691C7.0583 4.16691 6.63437 4.3425 6.32181 4.65506C6.00925 4.96762 5.83366 5.39155 5.83366 5.83357ZM9.16699 14.1669C9.16619 13.355 9.46173 12.5707 9.99814 11.9613C10.5345 11.3519 11.2749 10.9591 12.0804 10.8568C12.8858 10.7546 13.7008 10.9497 14.3726 11.4057C15.0443 11.8618 15.5265 12.5473 15.7287 13.3336H17.5003C17.7213 13.3336 17.9333 13.4214 18.0896 13.5777C18.2459 13.7339 18.3337 13.9459 18.3337 14.1669C18.3337 14.3879 18.2459 14.5999 18.0896 14.7562C17.9333 14.9124 17.7213 15.0002 17.5003 15.0002H15.7287C15.5239 15.784 15.0409 16.4664 14.3698 16.9201C13.6987 17.3737 12.8854 17.5677 12.0818 17.4656C11.2782 17.3635 10.5392 16.9725 10.0028 16.3655C9.46647 15.7585 9.16936 14.977 9.16699 14.1669ZM10.8337 14.1669C10.8337 14.6089 11.0093 15.0329 11.3218 15.3454C11.6344 15.658 12.0583 15.8336 12.5003 15.8336C12.9424 15.8336 13.3663 15.658 13.6788 15.3454C13.9914 15.0329 14.167 14.6089 14.167 14.1669C14.167 13.7249 13.9914 13.301 13.6788 12.9884C13.3663 12.6758 12.9424 12.5002 12.5003 12.5002C12.0583 12.5002 11.6344 12.6758 11.3218 12.9884C11.0093 13.301 10.8337 13.7249 10.8337 14.1669ZM1.66699 14.1669C1.66699 13.9459 1.75479 13.7339 1.91107 13.5777C2.06735 13.4214 2.27931 13.3336 2.50033 13.3336H6.66699C6.88801 13.3336 7.09997 13.4214 7.25625 13.5777C7.41253 13.7339 7.50033 13.9459 7.50033 14.1669C7.50033 14.3879 7.41253 14.5999 7.25625 14.7562C7.09997 14.9124 6.88801 15.0002 6.66699 15.0002H2.50033C2.27931 15.0002 2.06735 14.9124 1.91107 14.7562C1.75479 14.5999 1.66699 14.3879 1.66699 14.1669Z" fill="#77A215"/>
</svg>
