<svg width="20" height="20" viewBox="0 0 20 20" fill="none" xmlns="http://www.w3.org/2000/svg">
<path d="M7.27194 4.24577C7.23274 4.20646 7.18946 4.1713 7.1431 4.14035C7.12411 4.12768 7.10353 4.11909 7.08378 4.10813C7.05586 4.0926 7.02879 4.07586 6.99903 4.06353C6.97242 4.05253 6.94468 4.0463 6.91729 4.03816C6.89249 4.03076 6.86868 4.02124 6.84296 4.01613C6.73479 3.99462 6.62342 3.99462 6.51525 4.01613C6.48959 4.02122 6.46588 4.03072 6.44113 4.0381C6.41367 4.04626 6.38583 4.05249 6.35916 4.06353C6.32952 4.0758 6.30253 4.0925 6.27473 4.10797C6.25491 4.11899 6.23418 4.12761 6.21511 4.14035C6.16875 4.1713 6.12547 4.20646 6.08627 4.24577L3.2453 7.08674C2.91823 7.4138 2.91823 7.94363 3.2453 8.27069C3.57236 8.59775 4.10219 8.59775 4.42925 8.27069L5.84183 6.85812V16.1623C5.84183 16.6248 6.21664 16.9996 6.6791 16.9996C7.14157 16.9996 7.51638 16.6248 7.51638 16.1623V6.85812L8.92895 8.27069C9.09248 8.43423 9.30671 8.51599 9.52093 8.51599C9.73516 8.51599 9.94938 8.43423 10.1129 8.27069C10.44 7.94363 10.44 7.4138 10.1129 7.08674L7.27194 4.24577Z" fill="#77A215"/>
<path d="M17.1617 12.7289C16.8347 12.4019 16.3048 12.4019 15.9778 12.7289L14.5652 14.1415V4.83727C14.5652 4.37481 14.1904 4 13.7279 4C13.2655 4 12.8907 4.37481 12.8907 4.83727V14.1415L11.4781 12.7289C11.151 12.4019 10.6212 12.4019 10.2941 12.7289C9.96706 13.056 9.96706 13.5858 10.2941 13.9129L13.1351 16.7538C13.1743 16.7932 13.2176 16.8283 13.2639 16.8593C13.2832 16.8721 13.3041 16.8808 13.3241 16.8919C13.3517 16.9072 13.3785 16.9238 13.4079 16.936C13.4348 16.9472 13.4629 16.9535 13.4906 16.9617C13.5151 16.969 13.5386 16.9784 13.5641 16.9835C13.6182 16.9942 13.673 17 13.7279 17C13.7829 17 13.8377 16.9942 13.8918 16.9835C13.9173 16.9784 13.9409 16.969 13.9655 16.9617C13.9931 16.9535 14.0211 16.9471 14.0479 16.936C14.0775 16.9238 14.1043 16.9072 14.132 16.8918C14.152 16.8807 14.1728 16.8721 14.1919 16.8593C14.2383 16.8283 14.2816 16.7932 14.3208 16.7538L17.1617 13.9129C17.4888 13.5858 17.4888 13.056 17.1617 12.7289Z" fill="#77A215"/>
</svg>
