<svg width="50" height="50" viewBox="0 0 50 50" fill="none" xmlns="http://www.w3.org/2000/svg">
<path d="M25.0001 1C24.4215 1.00037 23.8667 1.23048 23.4576 1.63957C23.0485 2.04866 22.8187 2.60353 22.8184 3.18206V11.9092C22.8184 12.6887 23.234 13.409 23.909 13.7987C24.584 14.1885 25.4161 14.1885 26.0911 13.7987C26.7661 13.409 27.1818 12.6887 27.1818 11.9092V3.18206C27.1814 2.60348 26.9517 2.04866 26.5426 1.63957C26.1335 1.23048 25.5786 1.00036 25.0001 1Z" fill="current"/>
<path d="M38.8858 8.02982L32.7133 14.2024C32.1621 14.7536 31.9469 15.5567 32.1486 16.3096C32.3502 17.0624 32.9383 17.6505 33.691 17.8521C34.4439 18.0537 35.2471 17.8385 35.7982 17.2874L41.9708 11.1148C42.522 10.5636 42.7375 9.76043 42.5355 9.00761C42.3339 8.25481 41.7458 7.66672 40.993 7.46512C40.2402 7.26313 39.437 7.47864 38.8858 8.02982Z" fill="current"/>
<path d="M46.8182 22.8193H38.091C37.3115 22.8193 36.5912 23.235 36.2015 23.91C35.8117 24.585 35.8117 25.417 36.2015 26.0921C36.5912 26.7671 37.3115 27.1827 38.091 27.1827H46.8182C47.5977 27.1827 48.318 26.7671 48.7077 26.0921C49.0974 25.4171 49.0974 24.585 48.7077 23.91C48.318 23.235 47.5977 22.8193 46.8182 22.8193Z" fill="current"/>
<path d="M35.7982 32.7133C35.2471 32.1621 34.4439 31.9469 33.6911 32.1486C32.9382 32.3502 32.3502 32.9383 32.1486 33.691C31.9469 34.4439 32.1621 35.2471 32.7133 35.7982L38.8858 41.9708C39.437 42.522 40.2402 42.7375 40.993 42.5355C41.7458 42.3339 42.3339 41.7458 42.5355 40.993C42.7375 40.2402 42.522 39.437 41.9708 38.8858L35.7982 32.7133Z" fill="current"/>
<path d="M25.0001 35.9092C24.4215 35.9095 23.8667 36.1393 23.4576 36.5484C23.0485 36.9575 22.8187 37.5123 22.8184 38.0909V46.818C22.8184 47.5975 23.234 48.3178 23.909 48.7075C24.584 49.0973 25.4161 49.0973 26.0911 48.7075C26.7661 48.3178 27.1818 47.5975 27.1818 46.818V38.0909C27.1814 37.5123 26.9517 36.9575 26.5426 36.5484C26.1335 36.1393 25.5786 35.9095 25.0001 35.9092Z" fill="current"/>
<path d="M15.7448 32.0733C15.1658 32.0722 14.6106 32.3023 14.2023 32.7125L8.02966 38.885C7.47848 39.4362 7.26334 40.2394 7.46496 40.9922C7.66658 41.745 8.25466 42.3331 9.00746 42.5351C9.76027 42.7367 10.5635 42.5216 11.1146 41.9704L17.2872 35.7978C17.6963 35.3883 17.9261 34.8336 17.9261 34.2549C17.9261 33.6763 17.6963 33.1215 17.2872 32.7124C16.8781 32.3034 16.3233 32.0733 15.7448 32.0733Z" fill="current"/>
<path d="M14.0907 25.0001C14.0903 24.4215 13.8606 23.8667 13.4515 23.4576C13.0424 23.0485 12.4875 22.8187 11.909 22.8184H3.1818C2.40234 22.8184 1.68204 23.234 1.2923 23.909C0.902566 24.584 0.902566 25.4161 1.2923 26.0911C1.68204 26.7661 2.40233 27.1818 3.1818 27.1818H11.909C12.4876 27.1814 13.0424 26.9517 13.4515 26.5426C13.8606 26.1335 14.0903 25.5786 14.0907 25.0001Z" fill="current"/>
<path d="M11.1148 8.02981C10.5636 7.47864 9.76044 7.26313 9.00762 7.46512C8.25481 7.66674 7.66672 8.25481 7.46512 9.00761C7.26313 9.76041 7.47864 10.5637 8.02982 11.1148L14.2024 17.2874C14.7536 17.8385 15.5568 18.0537 16.3096 17.8521C17.0624 17.6504 17.6505 17.0624 17.8521 16.3096C18.0537 15.5568 17.8386 14.7535 17.2874 14.2024L11.1148 8.02981Z" fill="current"/>
</svg>
